<svg xmlns="http://www.w3.org/2000/svg" xmlns:xlink="http://www.w3.org/1999/xlink" xmlns:serif="http://www.serif.com/" width="100%" height="100%" viewBox="0 0 1236 416" xml:space="preserve" style="fill-rule:evenodd;clip-rule:evenodd;stroke-linejoin:round;stroke-miterlimit:2;">    <g transform="matrix(4.16667,0,0,4.16667,984.855,137.98)">        <path d="M0,66.412C0.249,66.371 0.55,66.406 0.736,66.277C3.304,64.498 5.868,62.713 8.403,60.889C9.188,60.324 9.883,59.697 10.325,58.738C11.158,56.924 12.059,55.113 13.158,53.455C15.885,49.344 18.64,45.244 21.57,41.281C24.239,37.674 27.128,34.228 29.977,30.762C31.003,29.514 32.21,28.416 33.312,27.228C35.024,25.379 36.651,23.447 38.435,21.67C41.182,18.93 43.998,16.256 46.846,13.619C49.058,11.572 51.329,9.588 53.63,7.641C55.526,6.035 57.513,4.535 59.435,2.961C59.729,2.721 60.099,2.307 60.079,1.996C60.009,0.933 58.156,-0.08 57.138,0.385C55.493,1.137 53.81,1.848 52.279,2.797C48.499,5.144 45.018,7.91 41.671,10.836C39.4,12.822 37.166,14.855 34.982,16.935C33.214,18.621 31.531,20.398 29.838,22.162C27.822,24.256 25.805,26.346 23.849,28.492C20.25,32.445 16.687,36.432 13.127,40.42C11.777,41.933 10.481,43.494 9.163,45.037C7.915,46.496 6.667,47.951 5.427,49.414C4.93,50 4.526,50.121 4.033,49.359C3.316,48.25 2.577,47.144 1.728,46.137C-0.311,43.717 -2.366,41.305 -4.521,38.988C-5.794,37.623 -7.368,37.193 -9.272,37.883C-11.028,38.517 -12.45,39.576 -13.83,40.754C-14.674,41.476 -14.674,41.539 -13.812,42.269C-10.831,44.793 -8.17,47.629 -5.987,50.857C-3.672,54.281 -1.868,57.984 -0.814,62.002C-0.435,63.453 -0.269,64.959 -0.006,66.439L0.027,66.492L0,66.412Z" style="fill:rgb(53,167,13);fill-rule:nonzero;"></path>    </g>    <g transform="matrix(4.16667,0,0,4.16667,984.855,415.03)">        <path d="M0,-0.08L0.027,0L-0.006,-0.053L0,-0.08Z" style="fill:rgb(239,233,32);fill-rule:nonzero;"></path>    </g>    <g transform="matrix(4.16667,0,0,4.16667,0,6.5275)">        <path d="M0,37.82L0,0L26.259,0L26.259,7.402L7.565,7.402L7.565,13.941L18.424,13.941L18.424,21.288L7.565,21.288L7.565,30.42L27.069,30.42L27.069,37.82L0,37.82Z" style="fill:rgb(42,55,152);fill-rule:nonzero;"></path>    </g>    <g transform="matrix(4.16667,0,0,4.16667,213.414,45.9275)">        <path d="M0,28.364L-2.863,23.663C-3.89,21.991 -4.916,20.151 -5.458,19.071C-5.944,20.151 -7.078,22.044 -8.05,23.663L-10.915,28.364L-19.776,28.364L-9.726,13.022L-18.263,0L-9.401,0L-8.05,2.323C-7.024,3.999 -5.998,5.836 -5.458,6.916C-4.916,5.836 -3.836,3.999 -2.863,2.323L-1.513,0L7.349,0L-1.188,13.022L8.861,28.364L0,28.364Z" style="fill:rgb(42,55,152);fill-rule:nonzero;"></path>    </g>    <g transform="matrix(4.16667,0,0,4.16667,331.824,95.4492)">        <path d="M0,4.594C-1.297,3.783 -2.539,3.405 -5.187,3.405C-7.997,3.405 -9.509,4.701 -9.509,6.971C-9.509,8.971 -8.375,10.754 -5.187,10.754C-2.755,10.754 -0.811,9.51 0,8.16L0,4.594ZM0,16.479L0,14.588C-1.351,15.994 -3.729,17.074 -6.376,17.074C-11.671,17.074 -16.966,13.832 -16.966,6.971C-16.966,0.704 -11.887,-2.429 -5.458,-2.429C-2.864,-2.429 -1.188,-1.89 0,-1.295L0,-2.699C0,-4.699 -1.351,-6.32 -4.053,-6.32C-7.456,-6.32 -9.24,-5.834 -11.833,-4.427L-14.696,-9.616C-11.4,-11.508 -8.645,-12.48 -4.053,-12.48C2.811,-12.48 7.457,-8.913 7.457,-2.537L7.457,16.479L0,16.479Z" style="fill:rgb(42,55,152);fill-rule:nonzero;"></path>    </g>    <g transform="matrix(4.16667,0,0,4.16667,530.16,43.4483)">        <path d="M0,28.959L0,13.617C0,8.538 -1.459,7.025 -4.539,7.025C-7.618,7.025 -9.132,8.538 -9.132,13.455L-9.132,28.959L-16.588,28.959L-16.588,13.617C-16.588,8.538 -18.047,7.025 -21.126,7.025C-24.206,7.025 -25.72,8.538 -25.72,13.455L-25.72,28.959L-33.175,28.959L-33.175,0.595L-25.72,0.595L-25.72,2.486C-24.423,1.136 -22.478,0 -19.506,0C-15.886,0 -13.778,1.026 -11.671,3.621C-9.727,1.622 -7.349,0 -2.648,0C4.593,0 7.456,4.972 7.456,12.969L7.456,28.959L0,28.959Z" style="fill:rgb(42,55,152);fill-rule:nonzero;"></path>    </g>    <g transform="matrix(4.16667,0,0,4.16667,640.463,93.8708)">        <path d="M0,-5.076C-2.324,-5.076 -3.514,-4.103 -4.594,-2.699L-4.594,7.998C-3.459,9.565 -1.729,10.43 0.432,10.43C3.295,10.43 4.862,7.944 4.862,3.188C4.862,-2.644 2.917,-5.076 0,-5.076M1.403,17.453C-1.081,17.453 -3.244,16.481 -4.594,15.237L-4.594,16.858L-12.05,16.858L-12.05,-18.801L-4.594,-22.529L-4.594,-9.722C-3.189,-10.966 -1.297,-12.101 1.403,-12.101C7.454,-12.101 12.425,-7.562 12.425,3.028C12.425,11.51 8.428,17.453 1.403,17.453" style="fill:rgb(42,55,152);fill-rule:nonzero;"></path>    </g>    <g transform="matrix(4.16667,0,0,4.16667,906.995,125.381)">        <path d="M0,-10.369C-1.189,-11.45 -2.647,-12.208 -4.322,-12.208C-7.239,-12.208 -9.131,-10.965 -9.131,-6.047L-9.131,9.295L-16.588,9.295L-16.588,-19.069L-9.131,-19.069L-9.131,-17.178C-7.834,-18.529 -5.943,-19.664 -3.295,-19.664C-0.866,-19.664 0.973,-18.691 1.946,-17.664L0,-10.369Z" style="fill:rgb(42,55,152);fill-rule:nonzero;"></path>    </g>    <g transform="matrix(4.16667,0,0,4.16667,1003.34,125.381)">        <path d="M0,-10.369C-1.189,-11.45 -2.649,-12.208 -4.321,-12.208C-7.24,-12.208 -9.133,-10.965 -9.133,-6.047L-9.133,9.295L-16.588,9.295L-16.588,-19.069L-9.133,-19.069L-9.133,-17.178C-7.835,-18.529 -5.945,-19.664 -3.297,-19.664C-0.866,-19.664 0.973,-18.691 1.946,-17.664L0,-10.369Z" style="fill:rgb(42,55,152);fill-rule:nonzero;"></path>    </g>    <g transform="matrix(4.16667,0,0,4.16667,1084.16,45.9275)">        <path d="M0,38.362L-7.347,38.362L-3.565,28.364L-14.589,0L-6.376,0L-1.728,13.67C-0.974,15.831 -0.216,18.532 0.108,19.882C0.434,18.477 1.189,15.883 1.946,13.67L6.593,0L14.587,0L0,38.362Z" style="fill:rgb(42,55,152);fill-rule:nonzero;"></path>    </g>    <g transform="matrix(4.16667,0,0,4.16667,784.973,140.387)">        <path d="M0,-15.357C1.715,-14.962 3.243,-13.628 4.028,-11.288C4.141,-10.954 4.234,-10.615 4.31,-10.271C4.157,-10.189 4,-10.107 3.842,-10.031C0.602,-8.447 -2.672,-8.468 -3.469,-10.083C-4.186,-11.531 -2.663,-13.767 0,-15.357M3.047,1.983C-1.2,1.983 -5.242,0.094 -7.992,-3.371C-8.652,-4.203 -9.229,-5.111 -9.705,-6.074L-10.448,-7.566L-9.154,-6.515C-4.146,-2.443 3.098,-2.615 8.458,-6.937L8.593,-7.046C8.65,-12.359 6.189,-17.615 1.493,-19.806C-5.236,-22.943 -13.988,-18.602 -17.279,-11.73C-20.574,-4.857 -16.642,1.659 -9.915,4.797C-3.929,7.586 2.251,6.754 5.861,1.696C4.921,1.881 3.978,1.983 3.047,1.983" style="fill:rgb(239,42,30);"></path>    </g>    <g transform="matrix(4.16667,0,0,4.16667,763.347,29.5158)">        <path d="M0,3.838C1.231,-0.644 1.676,-4.174 0.977,-4.295C0.244,-4.42 -1.473,-0.776 -2.954,3.981C-3.179,3.793 -3.4,3.604 -3.634,3.414C-7.613,0.165 -11.216,-1.929 -11.683,-1.264C-12.103,-0.661 -9.807,1.994 -6.42,4.901C-11.794,4.963 -16.149,5.587 -16.222,6.32C-16.295,7.07 -11.854,7.651 -6.31,7.613C-6.22,7.613 -6.133,7.609 -6.043,7.609C-5.493,8.076 -4.369,8.258 -3.111,8.014C-2.173,7.829 -1.367,7.444 -0.841,6.987C-0.744,6.951 -0.654,6.918 -0.556,6.88C4.746,4.801 8.849,2.557 8.604,1.867C8.382,1.243 4.65,2.117 0,3.838" style="fill:rgb(53,167,13);"></path>    </g>    <g transform="matrix(11.2457,0,0,11.2457,-3120.16,-3697.42)">        <g transform="matrix(16,0,0,16,301.405,359.189)">            <path d="M0.376,-0.562L0.376,-0L0.205,-0L0.205,-0.562L0.005,-0.562L0.005,-0.708L0.576,-0.708L0.576,-0.562L0.376,-0.562Z" style="fill:rgb(239,42,30);fill-rule:nonzero;"></path>        </g>        <g transform="matrix(16,0,0,16,309.261,359.189)">            <path d="M0.392,-0L0.392,-0.069L0.39,-0.069C0.384,-0.058 0.376,-0.047 0.367,-0.037C0.357,-0.027 0.345,-0.018 0.333,-0.011C0.32,-0.004 0.305,0.002 0.29,0.007C0.274,0.012 0.257,0.014 0.24,0.014C0.207,0.014 0.179,0.008 0.156,-0.004C0.132,-0.016 0.114,-0.032 0.1,-0.051C0.085,-0.07 0.075,-0.091 0.069,-0.116C0.062,-0.14 0.059,-0.165 0.059,-0.19L0.059,-0.498L0.224,-0.498L0.224,-0.228C0.224,-0.214 0.225,-0.201 0.227,-0.188C0.229,-0.175 0.233,-0.164 0.239,-0.154C0.244,-0.144 0.252,-0.136 0.261,-0.131C0.27,-0.125 0.283,-0.122 0.298,-0.122C0.327,-0.122 0.349,-0.133 0.364,-0.154C0.379,-0.175 0.386,-0.2 0.386,-0.229L0.386,-0.498L0.55,-0.498L0.55,-0L0.392,-0Z" style="fill:rgb(239,42,30);fill-rule:nonzero;"></path>        </g>        <g transform="matrix(16,0,0,16,319.085,359.189)">            <path d="M0.242,-0.657C0.242,-0.644 0.24,-0.632 0.235,-0.622C0.23,-0.611 0.223,-0.601 0.215,-0.593C0.206,-0.585 0.196,-0.579 0.185,-0.574C0.173,-0.569 0.161,-0.567 0.148,-0.567C0.121,-0.567 0.099,-0.576 0.081,-0.594C0.063,-0.611 0.054,-0.632 0.054,-0.657C0.054,-0.669 0.056,-0.681 0.061,-0.692C0.066,-0.703 0.072,-0.712 0.081,-0.72C0.09,-0.728 0.1,-0.735 0.111,-0.74C0.122,-0.745 0.135,-0.747 0.148,-0.747C0.161,-0.747 0.173,-0.745 0.185,-0.74C0.196,-0.735 0.206,-0.729 0.215,-0.721C0.223,-0.713 0.23,-0.704 0.235,-0.693C0.24,-0.682 0.242,-0.67 0.242,-0.657ZM0.066,-0L0.066,-0.498L0.23,-0.498L0.23,-0L0.066,-0Z" style="fill:rgb(239,42,30);fill-rule:nonzero;"></path>        </g>        <g transform="matrix(16,0,0,16,323.821,359.189)">            <path d="M0.242,-0.375L0.242,-0.185C0.242,-0.162 0.247,-0.144 0.256,-0.133C0.265,-0.121 0.281,-0.115 0.304,-0.115C0.312,-0.115 0.321,-0.116 0.33,-0.117C0.339,-0.118 0.346,-0.12 0.352,-0.123L0.354,-0.003C0.343,0.001 0.328,0.005 0.311,0.008C0.294,0.011 0.276,0.012 0.259,0.012C0.226,0.012 0.198,0.008 0.175,-0.001C0.152,-0.009 0.134,-0.021 0.121,-0.037C0.107,-0.052 0.097,-0.071 0.091,-0.093C0.085,-0.114 0.082,-0.138 0.082,-0.165L0.082,-0.375L0.002,-0.375L0.002,-0.498L0.081,-0.498L0.081,-0.629L0.242,-0.629L0.242,-0.498L0.359,-0.498L0.359,-0.375L0.242,-0.375Z" style="fill:rgb(239,42,30);fill-rule:nonzero;"></path>        </g>        <g transform="matrix(16,0,0,16,329.773,359.189)">            <path d="M0.242,-0.657C0.242,-0.644 0.24,-0.632 0.235,-0.622C0.23,-0.611 0.223,-0.601 0.215,-0.593C0.206,-0.585 0.196,-0.579 0.185,-0.574C0.173,-0.569 0.161,-0.567 0.148,-0.567C0.121,-0.567 0.099,-0.576 0.081,-0.594C0.063,-0.611 0.054,-0.632 0.054,-0.657C0.054,-0.669 0.056,-0.681 0.061,-0.692C0.066,-0.703 0.072,-0.712 0.081,-0.72C0.09,-0.728 0.1,-0.735 0.111,-0.74C0.122,-0.745 0.135,-0.747 0.148,-0.747C0.161,-0.747 0.173,-0.745 0.185,-0.74C0.196,-0.735 0.206,-0.729 0.215,-0.721C0.223,-0.713 0.23,-0.704 0.235,-0.693C0.24,-0.682 0.242,-0.67 0.242,-0.657ZM0.066,-0L0.066,-0.498L0.23,-0.498L0.23,-0L0.066,-0Z" style="fill:rgb(239,42,30);fill-rule:nonzero;"></path>        </g>        <g transform="matrix(16,0,0,16,334.509,359.189)">            <path d="M0.592,-0.251C0.592,-0.21 0.585,-0.173 0.57,-0.141C0.555,-0.108 0.535,-0.08 0.51,-0.057C0.485,-0.034 0.455,-0.016 0.422,-0.003C0.389,0.01 0.353,0.016 0.315,0.016C0.278,0.016 0.242,0.01 0.209,-0.003C0.175,-0.016 0.146,-0.034 0.121,-0.057C0.095,-0.08 0.076,-0.108 0.061,-0.141C0.046,-0.173 0.039,-0.21 0.039,-0.251C0.039,-0.292 0.046,-0.328 0.061,-0.361C0.076,-0.394 0.095,-0.421 0.121,-0.444C0.146,-0.467 0.175,-0.484 0.209,-0.496C0.242,-0.508 0.278,-0.514 0.315,-0.514C0.353,-0.514 0.389,-0.508 0.422,-0.496C0.455,-0.484 0.485,-0.467 0.51,-0.444C0.535,-0.421 0.555,-0.394 0.57,-0.361C0.585,-0.328 0.592,-0.292 0.592,-0.251ZM0.434,-0.251C0.434,-0.267 0.431,-0.283 0.426,-0.298C0.421,-0.313 0.413,-0.327 0.403,-0.339C0.393,-0.35 0.381,-0.36 0.366,-0.367C0.351,-0.374 0.334,-0.378 0.315,-0.378C0.296,-0.378 0.279,-0.374 0.264,-0.367C0.249,-0.36 0.237,-0.35 0.228,-0.339C0.218,-0.327 0.211,-0.313 0.206,-0.298C0.201,-0.283 0.198,-0.267 0.198,-0.251C0.198,-0.235 0.201,-0.219 0.206,-0.204C0.211,-0.189 0.218,-0.175 0.228,-0.163C0.238,-0.15 0.25,-0.14 0.265,-0.133C0.28,-0.126 0.297,-0.122 0.316,-0.122C0.335,-0.122 0.352,-0.126 0.367,-0.133C0.382,-0.14 0.394,-0.15 0.404,-0.163C0.414,-0.175 0.422,-0.189 0.427,-0.204C0.432,-0.219 0.434,-0.235 0.434,-0.251Z" style="fill:rgb(239,42,30);fill-rule:nonzero;"></path>        </g>        <g transform="matrix(16,0,0,16,344.621,359.189)">            <path d="M0.391,-0L0.391,-0.272C0.391,-0.286 0.39,-0.299 0.388,-0.312C0.385,-0.325 0.381,-0.336 0.376,-0.346C0.371,-0.355 0.363,-0.363 0.354,-0.369C0.344,-0.374 0.332,-0.377 0.317,-0.377C0.302,-0.377 0.29,-0.374 0.279,-0.369C0.268,-0.363 0.258,-0.355 0.251,-0.345C0.244,-0.335 0.238,-0.324 0.235,-0.311C0.231,-0.298 0.229,-0.284 0.229,-0.27L0.229,-0L0.064,-0L0.064,-0.498L0.223,-0.498L0.223,-0.429L0.225,-0.429C0.231,-0.44 0.239,-0.45 0.249,-0.461C0.258,-0.471 0.27,-0.48 0.283,-0.487C0.296,-0.494 0.31,-0.5 0.325,-0.505C0.34,-0.51 0.357,-0.512 0.374,-0.512C0.407,-0.512 0.436,-0.506 0.459,-0.494C0.482,-0.482 0.501,-0.467 0.516,-0.448C0.53,-0.428 0.54,-0.407 0.547,-0.382C0.553,-0.357 0.556,-0.333 0.556,-0.308L0.556,-0L0.391,-0Z" style="fill:rgb(239,42,30);fill-rule:nonzero;"></path>        </g>    </g></svg>